<svg width="13" height="18" viewBox="0 0 13 18" fill="none" xmlns="http://www.w3.org/2000/svg">
<path d="M6.51602 7.86555C7.34442 7.8585 8.01016 7.19252 8.00299 6.37804C7.99582 5.56356 7.31845 4.90901 6.49005 4.91606C5.66165 4.92311 4.99591 5.58909 5.00308 6.40357C5.01025 7.21805 5.68762 7.8726 6.51602 7.86555Z" fill="#305C63"/>
<path d="M6.4468 0.000266572C2.86297 0.0307696 -0.0291164 2.76751 0.000222128 6.09964C0.014194 7.6865 0.776594 9.79045 2.26619 12.3532C3.46248 14.4108 4.84187 16.2689 5.55894 17.1932C5.68013 17.3511 5.83789 17.4791 6.01943 17.5666C6.20096 17.6542 6.40118 17.6989 6.60383 17.6972C6.80649 17.6955 7.00588 17.6473 7.18585 17.5567C7.36582 17.466 7.52131 17.3354 7.63969 17.1755C8.33916 16.2391 9.68685 14.3578 10.8467 12.2802C12.2885 9.69326 13.0138 7.57664 12.9998 5.98899C12.9705 2.65687 10.0306 -0.0302364 6.4468 0.000266572ZM6.52471 8.84907C6.01049 8.85345 5.50652 8.70945 5.07652 8.43528C4.64652 8.16111 4.30981 7.7691 4.10896 7.3088C3.90811 6.8485 3.85215 6.34059 3.94815 5.84931C4.04415 5.35803 4.2878 4.90543 4.64829 4.54876C5.00878 4.19209 5.46992 3.94735 5.9734 3.84551C6.47687 3.74366 7.00007 3.78928 7.47683 3.97659C7.95358 4.16391 8.36249 4.4845 8.65183 4.89783C8.94118 5.31117 9.09796 5.79868 9.10237 6.29871C9.10751 6.96902 8.83901 7.614 8.35577 8.09212C7.87253 8.57025 7.21401 8.84247 6.52471 8.84907Z" fill="#305C63"/>
</svg>
