<svg width="15" height="14" viewBox="0 0 15 14" fill="none" xmlns="http://www.w3.org/2000/svg">
<path d="M12.8846 3.5H2.11538C1.22323 3.5 0.5 4.24619 0.5 5.16667V11.8333C0.5 12.7538 1.22323 13.5 2.11538 13.5H12.8846C13.7768 13.5 14.5 12.7538 14.5 11.8333V5.16667C14.5 4.24619 13.7768 3.5 12.8846 3.5Z" stroke="#305C63" stroke-linejoin="round"/>
<path d="M13.5 3.27753V2.23575C13.4999 1.98023 13.4417 1.72789 13.3296 1.49672C13.2175 1.26554 13.0542 1.06124 12.8513 0.898383C12.6485 0.735527 12.4111 0.618132 12.1561 0.554574C11.9011 0.491017 11.6349 0.482863 11.3763 0.530695L1.95399 2.09163C1.54481 2.16732 1.17567 2.37923 0.910238 2.69081C0.644805 3.0024 0.499718 3.39412 0.5 3.79842V5.5" stroke="#305C63" stroke-linejoin="round"/>
<path d="M11.5 9.5C11.3022 9.5 11.1089 9.44135 10.9444 9.33147C10.78 9.22159 10.6518 9.06541 10.5761 8.88268C10.5004 8.69996 10.4806 8.49889 10.5192 8.30491C10.5578 8.11093 10.653 7.93275 10.7929 7.79289C10.9327 7.65304 11.1109 7.5578 11.3049 7.51922C11.4989 7.48063 11.7 7.50043 11.8827 7.57612C12.0654 7.65181 12.2216 7.77998 12.3315 7.94443C12.4414 8.10888 12.5 8.30222 12.5 8.5C12.5 8.76522 12.3946 9.01957 12.2071 9.20711C12.0196 9.39464 11.7652 9.5 11.5 9.5Z" fill="#305C63"/>
</svg>
