<svg width="28" height="28" viewBox="0 0 28 28" fill="none" xmlns="http://www.w3.org/2000/svg">
<path d="M20.0184 7.98443C19.5634 7.52933 19.297 6.91926 19.2725 6.27622C19.2479 5.63319 19.4671 5.00459 19.886 4.51615C19.9207 4.47552 19.9387 4.4233 19.9364 4.36996C19.9342 4.31661 19.9119 4.26608 19.874 4.22849L17.4606 1.8124C17.4207 1.77252 17.3666 1.75012 17.3102 1.75012C17.2538 1.75012 17.1997 1.77252 17.1598 1.8124L13.3131 5.65911C13.1712 5.80101 13.0643 5.97402 13.0009 6.16443C12.9377 6.35527 12.8309 6.52878 12.689 6.67117C12.5471 6.81356 12.3739 6.92092 12.1833 6.98474C11.9927 7.04823 11.8196 7.15513 11.6774 7.297L1.81233 17.1599C1.77246 17.1998 1.75006 17.2539 1.75006 17.3103C1.75006 17.3667 1.77246 17.4208 1.81233 17.4607L4.22569 19.874C4.26328 19.912 4.31381 19.9343 4.36716 19.9365C4.42051 19.9387 4.47273 19.9207 4.51335 19.8861C5.00169 19.4667 5.63043 19.2472 6.27368 19.2716C6.91694 19.296 7.52725 19.5624 7.98242 20.0176C8.4376 20.4728 8.70406 21.0831 8.72845 21.7264C8.75284 22.3696 8.53337 22.9984 8.11398 23.4867C8.07933 23.5273 8.06131 23.5795 8.06354 23.6329C8.06577 23.6862 8.08809 23.7368 8.12601 23.7744L10.5394 26.1877C10.5793 26.2276 10.6334 26.25 10.6898 26.25C10.7462 26.25 10.8003 26.2276 10.8401 26.1877L20.7058 16.3226C20.8476 16.1805 20.9545 16.0073 21.018 15.8168C21.0812 15.6259 21.188 15.4524 21.3299 15.31C21.4718 15.1676 21.645 15.0603 21.8356 14.9965C22.026 14.933 22.199 14.8261 22.3409 14.6842L26.1876 10.8375C26.2275 10.7976 26.2499 10.7435 26.2499 10.6871C26.2499 10.6307 26.2275 10.5766 26.1876 10.5367L23.7743 8.12333C23.7367 8.08541 23.6862 8.0631 23.6328 8.06087C23.5795 8.05864 23.5273 8.07665 23.4866 8.1113C22.9989 8.53096 22.3707 8.75103 21.7276 8.7275C21.0846 8.70398 20.4742 8.4386 20.0184 7.98443Z" stroke="black" stroke-width="1.5" stroke-miterlimit="10"/>
<path d="M13.6992 7.68036L12.7963 6.77747M16.1066 10.0877L15.5045 9.48614M18.5139 12.4956L17.9123 11.8935M21.2226 15.2037L20.3197 14.3008" stroke="black" stroke-width="2" stroke-miterlimit="10" stroke-linecap="round"/>
</svg>
