<svg width="25" height="25" viewBox="0 0 25 25" fill="none" xmlns="http://www.w3.org/2000/svg">
<path d="M12.6416 2.34372C6.92968 2.26657 2.2666 6.92965 2.34375 12.6416C2.41992 18.1196 6.88037 22.58 12.3584 22.6562C18.0713 22.7343 22.7334 18.0713 22.6553 12.3593C22.5801 6.88034 18.1196 2.41989 12.6416 2.34372ZM18.8144 18.3227C18.795 18.3438 18.7712 18.3603 18.7446 18.371C18.7181 18.3818 18.6895 18.3867 18.6609 18.3852C18.6323 18.3837 18.6043 18.3759 18.5791 18.3624C18.5538 18.3489 18.5318 18.33 18.5146 18.3071C18.0779 17.7357 17.543 17.2465 16.9351 16.8623C15.6919 16.0644 14.1167 15.625 12.5 15.625C10.8833 15.625 9.3081 16.0644 8.06494 16.8623C7.45697 17.2463 6.92211 17.7353 6.48535 18.3066C6.46819 18.3296 6.44619 18.3484 6.42092 18.3619C6.39565 18.3754 6.36772 18.3832 6.33911 18.3847C6.3105 18.3862 6.28191 18.3813 6.25537 18.3706C6.22883 18.3598 6.20499 18.3433 6.18554 18.3222C4.75277 16.7755 3.94116 14.7545 3.90625 12.6465C3.82666 7.89499 7.72558 3.91794 12.479 3.90622C17.2324 3.8945 21.0937 7.75436 21.0937 12.5C21.0954 14.6589 20.2813 16.7386 18.8144 18.3227Z" fill="black"/>
<path d="M12.5 7.03125C11.5371 7.03125 10.6665 7.39209 10.0479 8.04785C9.4292 8.70361 9.12012 9.61035 9.18994 10.5835C9.33154 12.5 10.8164 14.0625 12.5 14.0625C14.1836 14.0625 15.6655 12.5 15.8101 10.584C15.8823 9.62012 15.5757 8.72168 14.9468 8.05371C14.3257 7.39453 13.4565 7.03125 12.5 7.03125Z" fill="black"/>
</svg>
