<svg width="17" height="17" viewBox="0 0 17 17" fill="none" xmlns="http://www.w3.org/2000/svg">
<path d="M14.6538 1.73074H2.34615C1.32655 1.73074 0.5 2.55729 0.5 3.5769V14.6538C0.5 15.6734 1.32655 16.5 2.34615 16.5H14.6538C15.6734 16.5 16.5 15.6734 16.5 14.6538V3.5769C16.5 2.55729 15.6734 1.73074 14.6538 1.73074Z" stroke="black" stroke-linejoin="round"/>
<path d="M10.0385 8.49999C10.5483 8.49999 10.9616 8.08672 10.9616 7.57692C10.9616 7.06711 10.5483 6.65384 10.0385 6.65384C9.52869 6.65384 9.11542 7.06711 9.11542 7.57692C9.11542 8.08672 9.52869 8.49999 10.0385 8.49999Z" fill="black"/>
<path d="M13.1154 8.49999C13.6252 8.49999 14.0385 8.08672 14.0385 7.57692C14.0385 7.06711 13.6252 6.65384 13.1154 6.65384C12.6056 6.65384 12.1923 7.06711 12.1923 7.57692C12.1923 8.08672 12.6056 8.49999 13.1154 8.49999Z" fill="black"/>
<path d="M10.0385 11.5769C10.5483 11.5769 10.9616 11.1636 10.9616 10.6538C10.9616 10.144 10.5483 9.73074 10.0385 9.73074C9.52869 9.73074 9.11542 10.144 9.11542 10.6538C9.11542 11.1636 9.52869 11.5769 10.0385 11.5769Z" fill="black"/>
<path d="M13.1154 11.5769C13.6252 11.5769 14.0385 11.1636 14.0385 10.6538C14.0385 10.144 13.6252 9.73074 13.1154 9.73074C12.6056 9.73074 12.1923 10.144 12.1923 10.6538C12.1923 11.1636 12.6056 11.5769 13.1154 11.5769Z" fill="black"/>
<path d="M3.88456 11.5769C4.39437 11.5769 4.80764 11.1636 4.80764 10.6538C4.80764 10.144 4.39437 9.73074 3.88456 9.73074C3.37476 9.73074 2.96149 10.144 2.96149 10.6538C2.96149 11.1636 3.37476 11.5769 3.88456 11.5769Z" fill="black"/>
<path d="M6.96159 11.5769C7.47139 11.5769 7.88467 11.1636 7.88467 10.6538C7.88467 10.144 7.47139 9.73074 6.96159 9.73074C6.45179 9.73074 6.03851 10.144 6.03851 10.6538C6.03851 11.1636 6.45179 11.5769 6.96159 11.5769Z" fill="black"/>
<path d="M3.88456 14.6539C4.39437 14.6539 4.80764 14.2406 4.80764 13.7308C4.80764 13.221 4.39437 12.8077 3.88456 12.8077C3.37476 12.8077 2.96149 13.221 2.96149 13.7308C2.96149 14.2406 3.37476 14.6539 3.88456 14.6539Z" fill="black"/>
<path d="M6.96159 14.6539C7.47139 14.6539 7.88467 14.2406 7.88467 13.7308C7.88467 13.221 7.47139 12.8077 6.96159 12.8077C6.45179 12.8077 6.03851 13.221 6.03851 13.7308C6.03851 14.2406 6.45179 14.6539 6.96159 14.6539Z" fill="black"/>
<path d="M10.0385 14.6539C10.5483 14.6539 10.9616 14.2406 10.9616 13.7308C10.9616 13.221 10.5483 12.8077 10.0385 12.8077C9.52869 12.8077 9.11542 13.221 9.11542 13.7308C9.11542 14.2406 9.52869 14.6539 10.0385 14.6539Z" fill="black"/>
<path d="M3.5769 0.5V1.73077M13.4231 0.5V1.73077" stroke="black" stroke-linecap="round" stroke-linejoin="round"/>
<path d="M16.5 4.80771H0.5" stroke="black" stroke-linejoin="round"/>
</svg>
