<svg width="23" height="20" viewBox="0 0 23 20" fill="none" xmlns="http://www.w3.org/2000/svg">
<path d="M19.9357 3.98456H3.06424C1.79362 3.98456 0.76358 4.994 0.76358 6.23921V16.7609C0.76358 18.0061 1.79362 19.0155 3.06424 19.0155H19.9357C21.2063 19.0155 22.2364 18.0061 22.2364 16.7609V6.23921C22.2364 4.994 21.2063 3.98456 19.9357 3.98456Z" stroke="#305C63" stroke-width="1.5" stroke-linejoin="round"/>
<path d="M6.13178 3.73674V2.25016C6.13178 1.85589 6.29338 1.47778 6.58101 1.19899C6.86865 0.920202 7.25877 0.76358 7.66555 0.76358H15.3344C15.7412 0.76358 16.1313 0.920202 16.419 1.19899C16.7066 1.47778 16.8682 1.85589 16.8682 2.25016V3.73674M22.2364 8.93976H0.76358M14.5675 8.93976V10.0547C14.5675 10.1533 14.5271 10.2478 14.4552 10.3175C14.3833 10.3872 14.2858 10.4263 14.1841 10.4263H8.81588C8.71419 10.4263 8.61666 10.3872 8.54475 10.3175C8.47284 10.2478 8.43244 10.1533 8.43244 10.0547V8.93976" stroke="#305C63" stroke-width="1.5" stroke-linecap="round" stroke-linejoin="round"/>
</svg>
