<svg width="25" height="27" viewBox="0 0 25 27" fill="none" xmlns="http://www.w3.org/2000/svg">
<path d="M16.4971 20.8846V21.8077C16.4971 22.787 16.076 23.7261 15.3265 24.4185C14.577 25.111 13.5605 25.5 12.5005 25.5C11.4405 25.5 10.424 25.111 9.67446 24.4185C8.92495 23.7261 8.50388 22.787 8.50388 21.8077V20.8846M23.2214 19.0056C21.6178 17.1923 20.4856 16.2692 20.4856 11.2702C20.4856 6.69231 17.9552 5.06135 15.8726 4.26923C15.596 4.16423 15.3356 3.92308 15.2513 3.66058C14.886 2.51192 13.8618 1.5 12.5005 1.5C11.1391 1.5 10.1144 2.5125 9.75282 3.66173C9.66851 3.92712 9.40811 4.16423 9.13147 4.26923C7.04636 5.0625 4.5185 6.68769 4.5185 11.2702C4.51538 16.2692 3.38322 17.1923 1.77958 19.0056C1.11514 19.7567 1.69715 20.8846 2.85929 20.8846H22.1479C23.3038 20.8846 23.8821 19.7533 23.2214 19.0056Z" stroke="black" stroke-width="3" stroke-linecap="round" stroke-linejoin="round"/>
</svg>
