<svg width="8" height="9" viewBox="0 0 8 9" fill="none" xmlns="http://www.w3.org/2000/svg">
<path d="M7.5 0H0.5C0.367392 0 0.240215 0.0507971 0.146447 0.141216C0.0526784 0.231636 0 0.354271 0 0.482143V7.71429C1.02863e-05 7.82712 0.0308193 7.93797 0.089331 8.03568C0.147843 8.1334 0.231996 8.21454 0.333333 8.27096V9H1.83333V8.35714H6.16667V9H7.66667V8.27096C7.768 8.21454 7.85216 8.1334 7.91067 8.03568C7.96918 7.93797 7.99999 7.82712 8 7.71429V0.482143C8 0.354271 7.94732 0.231636 7.85355 0.141216C7.75979 0.0507971 7.63261 0 7.5 0ZM2.32958 6.81971C2.31591 6.94017 2.26722 7.05444 2.18911 7.14937C2.111 7.24429 2.00665 7.31599 1.88811 7.35621C1.76957 7.39642 1.64165 7.40351 1.51912 7.37665C1.39658 7.34979 1.28441 7.29009 1.19553 7.20441C1.10666 7.11874 1.04471 7.01059 1.01683 6.89244C0.988942 6.77428 0.996255 6.65094 1.03792 6.53662C1.07959 6.4223 1.15392 6.32166 1.25234 6.24631C1.35075 6.17096 1.46925 6.12397 1.59417 6.11076C1.69331 6.10061 1.79354 6.11197 1.88754 6.144C1.98154 6.17604 2.06692 6.22794 2.13742 6.29591C2.20793 6.36388 2.26178 6.44619 2.29503 6.53682C2.32828 6.62745 2.34008 6.72411 2.32958 6.81971ZM3.66667 5.14286H0.666667V1.92857H3.66667V5.14286ZM4 1.28571H0.67625L0.666667 0.642857H7.33333L7.32375 1.28571H4ZM4.33333 1.92857H7.33333V5.14286H4.33333V1.92857ZM5.67042 6.68029C5.68409 6.55983 5.73278 6.44555 5.81089 6.35063C5.889 6.25571 5.99335 6.18401 6.11189 6.14379C6.23043 6.10358 6.35835 6.09649 6.48088 6.12335C6.60342 6.15021 6.71559 6.20991 6.80447 6.29559C6.89334 6.38126 6.95529 6.48941 6.98317 6.60756C7.01106 6.72572 7.00375 6.84906 6.96208 6.96338C6.92041 7.0777 6.84608 7.17834 6.74766 7.25369C6.64925 7.32903 6.53075 7.37603 6.40583 7.38924C6.30669 7.39939 6.20646 7.38803 6.11246 7.356C6.01846 7.32396 5.93308 7.27206 5.86258 7.20409C5.79207 7.13612 5.73822 7.05381 5.70497 6.96318C5.67173 6.87255 5.65992 6.77589 5.67042 6.68029Z" fill="#417A73"/>
</svg>
