<svg width="24" height="20" viewBox="0 0 24 20" fill="none" xmlns="http://www.w3.org/2000/svg">
<path d="M20.5642 3.2213H3.13325C1.8205 3.2213 0.756301 4.29731 0.756301 5.62465V16.8403C0.756301 18.1677 1.8205 19.2437 3.13325 19.2437H20.5642C21.8769 19.2437 22.9411 18.1677 22.9411 16.8403V5.62465C22.9411 4.29731 21.8769 3.2213 20.5642 3.2213Z" stroke="black" stroke-width="1.5" stroke-linejoin="round"/>
<path d="M6.30251 3.79012V2.27321C6.30251 1.8709 6.46946 1.48507 6.76664 1.20059C7.06381 0.916118 7.46687 0.756301 7.88714 0.756301H15.8103C16.2306 0.756301 16.6336 0.916118 16.9308 1.20059C17.228 1.48507 17.3949 1.8709 17.3949 2.27321V3.79012M22.9411 9.09931H0.756301M15.018 9.09931V10.237C15.018 10.3376 14.9762 10.434 14.9019 10.5052C14.8277 10.5763 14.7269 10.6162 14.6218 10.6162H9.07561C8.97054 10.6162 8.86978 10.5763 8.79549 10.5052C8.72119 10.434 8.67945 10.3376 8.67945 10.237V9.09931" stroke="black" stroke-width="1.5" stroke-linecap="round" stroke-linejoin="round"/>
</svg>
