<svg width="27" height="27" viewBox="0 0 27 27" fill="none" xmlns="http://www.w3.org/2000/svg">
<path d="M21.5508 15.7429C21.3315 15.7439 21.1169 15.6799 20.9341 15.5588C20.7513 15.4378 20.6085 15.2652 20.5239 15.0629C20.4393 14.8607 20.4166 14.6378 20.4587 14.4227C20.5009 14.2075 20.6059 14.0097 20.7606 13.8543C20.9152 13.6989 21.1126 13.5929 21.3275 13.5497C21.5425 13.5066 21.7654 13.5282 21.9681 13.6119C22.1707 13.6955 22.344 13.8375 22.4659 14.0197C22.5878 14.2019 22.6529 14.4162 22.6529 14.6355C22.654 14.7808 22.6262 14.9248 22.5713 15.0593C22.5163 15.1938 22.4353 15.316 22.3328 15.419C22.2303 15.522 22.1084 15.6036 21.9742 15.6592C21.84 15.7148 21.6961 15.7433 21.5508 15.7429ZM16.1629 15.7429C15.9437 15.7439 15.729 15.6799 15.5462 15.5588C15.3634 15.4378 15.2207 15.2652 15.136 15.0629C15.0514 14.8607 15.0287 14.6378 15.0709 14.4227C15.113 14.2075 15.218 14.0097 15.3727 13.8543C15.5274 13.6989 15.7247 13.5929 15.9396 13.5497C16.1546 13.5066 16.3775 13.5282 16.5802 13.6119C16.7829 13.6955 16.9561 13.8375 17.0781 14.0197C17.2 14.2019 17.2651 14.4162 17.2651 14.6355C17.2662 14.7808 17.2385 14.9248 17.1835 15.0594C17.1286 15.1939 17.0476 15.3162 16.9451 15.4192C16.8426 15.5222 16.7207 15.6038 16.5864 15.6594C16.4521 15.7149 16.3082 15.7433 16.1629 15.7429ZM24.1833 22.0109C25.8977 20.7817 26.9998 18.9386 26.9998 16.8493C26.9998 13.1009 23.3875 10.0281 18.8571 10.0281C14.3267 10.0281 10.7139 13.1009 10.7139 16.8493C10.7139 20.5976 14.3262 23.6699 18.8571 23.6699C19.7752 23.6699 20.6938 23.5471 21.4896 23.3008C21.6209 23.2554 21.6731 23.2391 21.7343 23.2391C21.8854 23.2427 22.0331 23.2852 22.163 23.3625L23.9412 24.4072C23.9987 24.4373 24.0607 24.4581 24.1247 24.4689C24.1884 24.4645 24.2484 24.4372 24.2935 24.392C24.3386 24.3468 24.3658 24.2868 24.37 24.2231C24.3659 24.1537 24.3522 24.0852 24.3294 24.0196C24.3077 23.9426 24.0657 23.1758 23.9412 22.687C23.9298 22.6266 23.924 22.5654 23.9238 22.504C23.9245 22.4066 23.9489 22.3108 23.9949 22.2249C24.0408 22.139 24.1069 22.0656 24.1875 22.0109" fill="black"/>
<path d="M12.9795 9.41361C12.6373 9.41361 12.3091 9.27766 12.0671 9.03566C11.8251 8.79366 11.6891 8.46544 11.6891 8.1232C11.6891 7.78096 11.8251 7.45274 12.0671 7.21074C12.3091 6.96875 12.6373 6.83279 12.9795 6.83279C13.6529 6.83279 14.2652 7.44715 14.2652 8.1232C14.3263 8.79926 13.7141 9.41361 12.9795 9.41361ZM6.49002 9.41361C6.23469 9.41455 5.98482 9.33972 5.77204 9.1986C5.55925 9.05747 5.39312 8.85639 5.29466 8.6208C5.1962 8.38522 5.16985 8.12572 5.21893 7.87515C5.26801 7.62458 5.39033 7.39421 5.57039 7.21318C5.75046 7.03216 5.98018 6.90862 6.23049 6.85821C6.48079 6.80779 6.74043 6.83277 6.97653 6.92997C7.21263 7.02717 7.41459 7.19223 7.55685 7.40427C7.69911 7.6163 7.77526 7.86576 7.77568 8.12109C7.77431 8.46209 7.63856 8.78879 7.39788 9.03036C7.15721 9.27192 6.83101 9.40887 6.49002 9.4115M9.73477 2.53125C4.34689 2.53125 0 6.15674 0 10.7051C0 13.163 1.28566 15.3752 3.36709 16.8502C3.55113 16.972 3.58594 17.2441 3.58594 17.3496C3.59035 17.4301 3.57851 17.5106 3.55113 17.5864C3.36709 18.2007 3.13242 19.1953 3.1224 19.248C3.11238 19.3008 3.06123 19.4326 3.06123 19.4938C3.05862 19.5347 3.06473 19.5757 3.07916 19.6141C3.09358 19.6525 3.116 19.6873 3.14491 19.7164C3.17383 19.7455 3.20859 19.7681 3.24689 19.7827C3.28519 19.7973 3.32616 19.8036 3.36709 19.8012C3.43277 19.7971 3.49622 19.7758 3.55113 19.7395L5.69531 18.5098C5.87936 18.3869 6.0017 18.3869 6.18521 18.3869C6.29022 18.3884 6.39406 18.4092 6.4916 18.4481C7.47088 18.7555 8.57303 18.8784 9.67518 18.8784H10.2262C10.0255 18.2211 9.92228 17.538 9.91986 16.8507C9.91986 12.7332 13.8997 9.41519 18.7977 9.41519H19.3488C18.6732 5.54238 14.6327 2.53125 9.73477 2.53125Z" fill="black"/>
</svg>
