<svg width="19" height="19" viewBox="0 0 19 19" fill="none" xmlns="http://www.w3.org/2000/svg">
<path d="M17.5587 8.21898L17.4748 7.86311H9.73973V11.1369H14.3613C13.8815 13.4154 11.6549 14.6148 9.83621 14.6148C8.51289 14.6148 7.11795 14.0581 6.19467 13.1634C5.70754 12.6838 5.3198 12.1129 5.05363 11.4832C4.78745 10.8536 4.64808 10.1776 4.6435 9.49406C4.6435 8.11508 5.26322 6.73572 6.16498 5.8284C7.06674 4.92107 8.42865 4.41342 9.78277 4.41342C11.3336 4.41342 12.445 5.23688 12.8606 5.61242L15.187 3.29828C14.5046 2.69859 12.6298 1.1875 9.70781 1.1875C7.45342 1.1875 5.2918 2.05104 3.71168 3.62596C2.15234 5.17676 1.34521 7.41928 1.34521 9.5C1.34521 11.5807 2.10893 13.7112 3.62002 15.2742C5.23465 16.9412 7.52133 17.8125 9.87592 17.8125C12.0182 17.8125 14.0489 16.9731 15.4961 15.4501C16.9189 13.9509 17.6548 11.8765 17.6548 9.70187C17.6548 8.78639 17.5628 8.24273 17.5587 8.21898Z" fill="black"/>
</svg>
