<svg width="18" height="25" viewBox="0 0 18 25" fill="none" xmlns="http://www.w3.org/2000/svg">
<path d="M8.66667 1C4.43403 1 1 4.39433 1 8.5749C1 13.3852 6.11111 21.0082 7.98785 23.6412C8.06575 23.7523 8.16785 23.8428 8.28582 23.9051C8.4038 23.9675 8.53429 24 8.66667 24C8.79904 24 8.92954 23.9675 9.04751 23.9051C9.16548 23.8428 9.26758 23.7523 9.34549 23.6412C11.2222 21.0093 16.3333 13.3891 16.3333 8.5749C16.3333 4.39433 12.8993 1 8.66667 1Z" stroke="black" stroke-width="2" stroke-linecap="round" stroke-linejoin="round"/>
<path d="M8.66667 11.5416C10.2545 11.5416 11.5417 10.2544 11.5417 8.66663C11.5417 7.07881 10.2545 5.79163 8.66667 5.79163C7.07885 5.79163 5.79167 7.07881 5.79167 8.66663C5.79167 10.2544 7.07885 11.5416 8.66667 11.5416Z" stroke="black" stroke-width="2" stroke-linecap="round" stroke-linejoin="round"/>
</svg>
