<svg width="16" height="16" viewBox="0 0 16 16" fill="none" xmlns="http://www.w3.org/2000/svg">
<path d="M13.7691 1.65392H2.23075C1.27488 1.65392 0.499996 2.4288 0.499996 3.38467V13.7692C0.499996 14.7251 1.27488 15.5 2.23075 15.5H13.7691C14.725 15.5 15.4999 14.7251 15.4999 13.7692V3.38467C15.4999 2.4288 14.725 1.65392 13.7691 1.65392Z" stroke="#305C63" stroke-linejoin="round"/>
<path d="M9.44222 7.99987C9.92015 7.99987 10.3076 7.61243 10.3076 7.1345C10.3076 6.65656 9.92015 6.26912 9.44222 6.26912C8.96428 6.26912 8.57684 6.65656 8.57684 7.1345C8.57684 7.61243 8.96428 7.99987 9.44222 7.99987Z" fill="#305C63"/>
<path d="M12.3268 7.99987C12.8048 7.99987 13.1922 7.61243 13.1922 7.1345C13.1922 6.65656 12.8048 6.26912 12.3268 6.26912C11.8489 6.26912 11.4615 6.65656 11.4615 7.1345C11.4615 7.61243 11.8489 7.99987 12.3268 7.99987Z" fill="#305C63"/>
<path d="M9.44222 10.8846C9.92015 10.8846 10.3076 10.4972 10.3076 10.0192C10.3076 9.5413 9.92015 9.15386 9.44222 9.15386C8.96428 9.15386 8.57684 9.5413 8.57684 10.0192C8.57684 10.4972 8.96428 10.8846 9.44222 10.8846Z" fill="#305C63"/>
<path d="M12.3268 10.8846C12.8048 10.8846 13.1922 10.4972 13.1922 10.0192C13.1922 9.5413 12.8048 9.15386 12.3268 9.15386C11.8489 9.15386 11.4615 9.5413 11.4615 10.0192C11.4615 10.4972 11.8489 10.8846 12.3268 10.8846Z" fill="#305C63"/>
<path d="M3.6731 10.8846C4.15103 10.8846 4.53847 10.4972 4.53847 10.0192C4.53847 9.5413 4.15103 9.15386 3.6731 9.15386C3.19516 9.15386 2.80772 9.5413 2.80772 10.0192C2.80772 10.4972 3.19516 10.8846 3.6731 10.8846Z" fill="#305C63"/>
<path d="M6.5576 10.8846C7.03553 10.8846 7.42297 10.4972 7.42297 10.0192C7.42297 9.5413 7.03553 9.15386 6.5576 9.15386C6.07966 9.15386 5.69222 9.5413 5.69222 10.0192C5.69222 10.4972 6.07966 10.8846 6.5576 10.8846Z" fill="#305C63"/>
<path d="M3.6731 13.769C4.15103 13.769 4.53847 13.3816 4.53847 12.9036C4.53847 12.4257 4.15103 12.0382 3.6731 12.0382C3.19516 12.0382 2.80772 12.4257 2.80772 12.9036C2.80772 13.3816 3.19516 13.769 3.6731 13.769Z" fill="#305C63"/>
<path d="M6.5576 13.769C7.03553 13.769 7.42297 13.3816 7.42297 12.9036C7.42297 12.4257 7.03553 12.0382 6.5576 12.0382C6.07966 12.0382 5.69222 12.4257 5.69222 12.9036C5.69222 13.3816 6.07966 13.769 6.5576 13.769Z" fill="#305C63"/>
<path d="M9.44222 13.769C9.92015 13.769 10.3076 13.3816 10.3076 12.9036C10.3076 12.4257 9.92015 12.0382 9.44222 12.0382C8.96428 12.0382 8.57684 12.4257 8.57684 12.9036C8.57684 13.3816 8.96428 13.769 9.44222 13.769Z" fill="#305C63"/>
<path d="M3.38462 0.499996V1.65383M12.6153 0.499996V1.65383" stroke="#305C63" stroke-linecap="round" stroke-linejoin="round"/>
<path d="M15.4999 4.5383H0.499996" stroke="#305C63" stroke-linejoin="round"/>
</svg>
