<svg width="13" height="17" viewBox="0 0 13 17" fill="none" xmlns="http://www.w3.org/2000/svg">
<path d="M6.1389 7.55556C6.9213 7.55556 7.55556 6.9213 7.55556 6.1389C7.55556 5.35649 6.9213 4.72223 6.1389 4.72223C5.35649 4.72223 4.72223 5.35649 4.72223 6.1389C4.72223 6.9213 5.35649 7.55556 6.1389 7.55556Z" fill="#A6A6A6"/>
<path d="M6.13889 0C2.75406 0 0 2.60512 0 5.80602C0 7.33039 0.702519 9.35756 2.08799 11.8314C3.20066 13.8176 4.48791 15.6136 5.15743 16.5073C5.27057 16.66 5.41849 16.7842 5.58921 16.8698C5.75993 16.9554 5.94864 17 6.14004 17C6.33144 17 6.52015 16.9554 6.69087 16.8698C6.86159 16.7842 7.00951 16.66 7.12265 16.5073C7.79102 15.6136 9.07942 13.8176 10.1921 11.8314C11.5753 9.35832 12.2778 7.33114 12.2778 5.80602C12.2778 2.60512 9.52372 0 6.13889 0ZM6.13889 8.50032C5.65323 8.50032 5.17847 8.35788 4.77466 8.09101C4.37084 7.82415 4.05611 7.44484 3.87025 7.00106C3.6844 6.55728 3.63577 6.06896 3.73052 5.59785C3.82526 5.12673 4.05913 4.69399 4.40255 4.35433C4.74596 4.01468 5.1835 3.78337 5.65983 3.68966C6.13616 3.59595 6.62989 3.64404 7.07859 3.82786C7.52728 4.01168 7.91079 4.32297 8.18061 4.72236C8.45043 5.12175 8.59444 5.59131 8.59444 6.07166C8.59373 6.71556 8.3348 7.33289 7.87444 7.7882C7.41409 8.24351 6.78992 8.49961 6.13889 8.50032Z" fill="#A6A6A6"/>
</svg>
