<svg width="18" height="16" viewBox="0 0 18 16" fill="none" xmlns="http://www.w3.org/2000/svg">
<path d="M15.4653 3.24003H2.53469C1.56087 3.24003 0.771429 4.01368 0.771429 4.96803V13.032C0.771429 13.9864 1.56087 14.76 2.53469 14.76H15.4653C16.4391 14.76 17.2286 13.9864 17.2286 13.032V4.96803C17.2286 4.01368 16.4391 3.24003 15.4653 3.24003Z" stroke="black" stroke-width="1.5" stroke-linejoin="round"/>
<path d="M4.88571 3.05011V1.91077C4.88571 1.6086 5.00956 1.3188 5.23001 1.10513C5.45046 0.891466 5.74946 0.771429 6.06122 0.771429H11.9388C12.2505 0.771429 12.5495 0.891466 12.77 1.10513C12.9904 1.3188 13.1143 1.6086 13.1143 1.91077V3.05011M17.2286 7.0378H0.771429M11.351 7.0378V7.89231C11.351 7.96785 11.3201 8.0403 11.2649 8.09372C11.2098 8.14713 11.1351 8.17714 11.0571 8.17714H6.94286C6.86492 8.17714 6.79017 8.14713 6.73505 8.09372C6.67994 8.0403 6.64898 7.96785 6.64898 7.89231V7.0378" stroke="black" stroke-width="1.5" stroke-linecap="round" stroke-linejoin="round"/>
</svg>
