<svg width="10" height="14" viewBox="0 0 10 14" fill="none" xmlns="http://www.w3.org/2000/svg">
<path d="M5.00004 6.15388C5.63729 6.15388 6.15388 5.63729 6.15388 5.00004C6.15388 4.36279 5.63729 3.84619 5.00004 3.84619C4.36279 3.84619 3.84619 4.36279 3.84619 5.00004C3.84619 5.63729 4.36279 6.15388 5.00004 6.15388Z" fill="#305C63"/>
<path d="M5 0C2.24312 0 0 2.12182 0 4.72889C0 5.97045 0.572187 7.62154 1.70062 9.63642C2.60687 11.2541 3.65531 12.717 4.20062 13.4449C4.29277 13.5692 4.41325 13.6704 4.5523 13.7401C4.69134 13.8098 4.84504 13.8462 5.00094 13.8462C5.15683 13.8462 5.31053 13.8098 5.44958 13.7401C5.58862 13.6704 5.70911 13.5692 5.80125 13.4449C6.34563 12.717 7.395 11.2541 8.30125 9.63642C9.42781 7.62216 10 5.97107 10 4.72889C10 2.12182 7.75688 0 5 0ZM5 6.92334C4.60444 6.92334 4.21776 6.80732 3.88886 6.58997C3.55996 6.37261 3.30362 6.06367 3.15224 5.70222C3.00087 5.34077 2.96126 4.94305 3.03843 4.55933C3.1156 4.17562 3.30608 3.82316 3.58579 3.54651C3.86549 3.26987 4.22186 3.08148 4.60982 3.00515C4.99778 2.92883 5.39991 2.968 5.76537 3.11772C6.13082 3.26743 6.44318 3.52097 6.66294 3.84627C6.8827 4.17157 7 4.55401 7 4.94524C6.99942 5.46969 6.78852 5.97249 6.41357 6.34333C6.03863 6.71417 5.53026 6.92276 5 6.92334Z" fill="#305C63"/>
</svg>
