<svg width="13" height="13" viewBox="0 0 13 13" fill="none" xmlns="http://www.w3.org/2000/svg">
<path d="M0 12.3036C0 12.4883 0.0733735 12.6654 0.203979 12.796C0.334585 12.9266 0.511724 13 0.696429 13H12.3036C12.4883 13 12.6654 12.9266 12.796 12.796C12.9266 12.6654 13 12.4883 13 12.3036V4.17857H0V12.3036ZM9.28571 5.22321C9.28571 5.19243 9.29794 5.16291 9.31971 5.14114C9.34148 5.11937 9.371 5.10714 9.40179 5.10714H10.5625C10.5933 5.10714 10.6228 5.11937 10.6446 5.14114C10.6663 5.16291 10.6786 5.19243 10.6786 5.22321V6.38393C10.6786 6.41471 10.6663 6.44424 10.6446 6.466C10.6228 6.48777 10.5933 6.5 10.5625 6.5H9.40179C9.371 6.5 9.34148 6.48777 9.31971 6.466C9.29794 6.44424 9.28571 6.41471 9.28571 6.38393V5.22321ZM9.28571 7.54464C9.28571 7.51386 9.29794 7.48434 9.31971 7.46257C9.34148 7.4408 9.371 7.42857 9.40179 7.42857H10.5625C10.5933 7.42857 10.6228 7.4408 10.6446 7.46257C10.6663 7.48434 10.6786 7.51386 10.6786 7.54464V8.70536C10.6786 8.73614 10.6663 8.76566 10.6446 8.78743C10.6228 8.8092 10.5933 8.82143 10.5625 8.82143H9.40179C9.371 8.82143 9.34148 8.8092 9.31971 8.78743C9.29794 8.76566 9.28571 8.73614 9.28571 8.70536V7.54464ZM6.96429 5.22321C6.96429 5.19243 6.97651 5.16291 6.99828 5.14114C7.02005 5.11937 7.04957 5.10714 7.08036 5.10714H8.24107C8.27186 5.10714 8.30138 5.11937 8.32315 5.14114C8.34491 5.16291 8.35714 5.19243 8.35714 5.22321V6.38393C8.35714 6.41471 8.34491 6.44424 8.32315 6.466C8.30138 6.48777 8.27186 6.5 8.24107 6.5H7.08036C7.04957 6.5 7.02005 6.48777 6.99828 6.466C6.97651 6.44424 6.96429 6.41471 6.96429 6.38393V5.22321ZM6.96429 7.54464C6.96429 7.51386 6.97651 7.48434 6.99828 7.46257C7.02005 7.4408 7.04957 7.42857 7.08036 7.42857H8.24107C8.27186 7.42857 8.30138 7.4408 8.32315 7.46257C8.34491 7.48434 8.35714 7.51386 8.35714 7.54464V8.70536C8.35714 8.73614 8.34491 8.76566 8.32315 8.78743C8.30138 8.8092 8.27186 8.82143 8.24107 8.82143H7.08036C7.04957 8.82143 7.02005 8.8092 6.99828 8.78743C6.97651 8.76566 6.96429 8.73614 6.96429 8.70536V7.54464ZM6.96429 9.86607C6.96429 9.83529 6.97651 9.80576 6.99828 9.784C7.02005 9.76223 7.04957 9.75 7.08036 9.75H8.24107C8.27186 9.75 8.30138 9.76223 8.32315 9.784C8.34491 9.80576 8.35714 9.83529 8.35714 9.86607V11.0268C8.35714 11.0576 8.34491 11.0871 8.32315 11.1089C8.30138 11.1306 8.27186 11.1429 8.24107 11.1429H7.08036C7.04957 11.1429 7.02005 11.1306 6.99828 11.1089C6.97651 11.0871 6.96429 11.0576 6.96429 11.0268V9.86607ZM4.64286 7.54464C4.64286 7.51386 4.65509 7.48434 4.67685 7.46257C4.69862 7.4408 4.72814 7.42857 4.75893 7.42857H5.91964C5.95043 7.42857 5.97995 7.4408 6.00172 7.46257C6.02349 7.48434 6.03571 7.51386 6.03571 7.54464V8.70536C6.03571 8.73614 6.02349 8.76566 6.00172 8.78743C5.97995 8.8092 5.95043 8.82143 5.91964 8.82143H4.75893C4.72814 8.82143 4.69862 8.8092 4.67685 8.78743C4.65509 8.76566 4.64286 8.73614 4.64286 8.70536V7.54464ZM4.64286 9.86607C4.64286 9.83529 4.65509 9.80576 4.67685 9.784C4.69862 9.76223 4.72814 9.75 4.75893 9.75H5.91964C5.95043 9.75 5.97995 9.76223 6.00172 9.784C6.02349 9.80576 6.03571 9.83529 6.03571 9.86607V11.0268C6.03571 11.0576 6.02349 11.0871 6.00172 11.1089C5.97995 11.1306 5.95043 11.1429 5.91964 11.1429H4.75893C4.72814 11.1429 4.69862 11.1306 4.67685 11.1089C4.65509 11.0871 4.64286 11.0576 4.64286 11.0268V9.86607ZM2.32143 7.54464C2.32143 7.51386 2.33366 7.48434 2.35542 7.46257C2.37719 7.4408 2.40672 7.42857 2.4375 7.42857H3.59821C3.629 7.42857 3.65852 7.4408 3.68029 7.46257C3.70206 7.48434 3.71429 7.51386 3.71429 7.54464V8.70536C3.71429 8.73614 3.70206 8.76566 3.68029 8.78743C3.65852 8.8092 3.629 8.82143 3.59821 8.82143H2.4375C2.40672 8.82143 2.37719 8.8092 2.35542 8.78743C2.33366 8.76566 2.32143 8.73614 2.32143 8.70536V7.54464ZM2.32143 9.86607C2.32143 9.83529 2.33366 9.80576 2.35542 9.784C2.37719 9.76223 2.40672 9.75 2.4375 9.75H3.59821C3.629 9.75 3.65852 9.76223 3.68029 9.784C3.70206 9.80576 3.71429 9.83529 3.71429 9.86607V11.0268C3.71429 11.0576 3.70206 11.0871 3.68029 11.1089C3.65852 11.1306 3.629 11.1429 3.59821 11.1429H2.4375C2.40672 11.1429 2.37719 11.1306 2.35542 11.1089C2.33366 11.0871 2.32143 11.0576 2.32143 11.0268V9.86607ZM12.3036 0.928571H10.6809V0H9.28804V0.928571H3.71196V0H2.31911V0.928571H0.696429C0.60532 0.927806 0.514961 0.945075 0.430557 0.979385C0.346152 1.01369 0.269371 1.06437 0.204636 1.12848C0.139901 1.1926 0.0884921 1.26889 0.0533713 1.35296C0.0182504 1.43703 0.000111629 1.52721 0 1.61833V3.25H13V1.61833C12.9999 1.52721 12.9817 1.43703 12.9466 1.35296C12.9115 1.26889 12.8601 1.1926 12.7954 1.12848C12.7306 1.06437 12.6538 1.01369 12.5694 0.979385C12.485 0.945075 12.3947 0.927806 12.3036 0.928571Z" fill="#305C63"/>
</svg>
