<svg width="27" height="27" viewBox="0 0 27 27" fill="none" xmlns="http://www.w3.org/2000/svg">
<path d="M24.0937 22.0127L18.5468 16.4657C19.8822 14.6879 20.6032 12.5239 20.6007 10.3004C20.6007 4.62078 15.9799 0 10.3004 0C4.62078 0 0 4.62078 0 10.3004C0 15.9799 4.62078 20.6007 10.3004 20.6007C12.5239 20.6032 14.6879 19.8822 16.4657 18.5468L22.0127 24.0937C22.2935 24.3447 22.6597 24.4787 23.0361 24.4682C23.4126 24.4576 23.7708 24.3034 24.0371 24.0371C24.3034 23.7708 24.4576 23.4126 24.4682 23.0361C24.4787 22.6597 24.3447 22.2935 24.0937 22.0127ZM2.94296 10.3004C2.94296 8.84521 3.37447 7.42273 4.18291 6.21281C4.99135 5.00289 6.14042 4.05988 7.48481 3.50301C8.8292 2.94615 10.3085 2.80044 11.7357 3.08433C13.1629 3.36822 14.4739 4.06894 15.5028 5.09789C16.5318 6.12685 17.2325 7.43781 17.5164 8.86501C17.8003 10.2922 17.6546 11.7715 17.0977 13.1159C16.5409 14.4603 15.5978 15.6094 14.3879 16.4178C13.178 17.2263 11.7555 17.6578 10.3004 17.6578C8.34978 17.6554 6.47975 16.8795 5.10048 15.5002C3.72121 14.121 2.9453 12.251 2.94296 10.3004Z" fill="black"/>
</svg>
